<svg xmlns="http://www.w3.org/2000/svg" viewBox="0 0 256 256">
  <rect width="256" height="256" fill="#1a1a1a"/>
  <path d="M128 40 L200 200 L170 200 L158 170 L98 170 L86 200 L56 200 Z M110 140 L146 140 L128 90 Z" fill="#6594B1"/>
  <circle cx="128" cy="90" r="4" fill="#8BC4E8"/>
  <circle cx="110" cy="140" r="3" fill="#8BC4E8"/>
  <circle cx="146" cy="140" r="3" fill="#8BC4E8"/>
  <circle cx="158" cy="170" r="3" fill="#8BC4E8"/>
  <circle cx="98" cy="170" r="3" fill="#8BC4E8"/>
  <line x1="128" y1="90" x2="110" y2="140" stroke="#8BC4E8" stroke-width="1.5" opacity="0.6"/>
  <line x1="128" y1="90" x2="146" y2="140" stroke="#8BC4E8" stroke-width="1.5" opacity="0.6"/>
  <line x1="110" y1="140" x2="98" y2="170" stroke="#8BC4E8" stroke-width="1.5" opacity="0.6"/>
  <line x1="146" y1="140" x2="158" y2="170" stroke="#8BC4E8" stroke-width="1.5" opacity="0.6"/>
  <circle cx="75" cy="120" r="2.5" fill="#6594B1" opacity="0.5"/>
  <circle cx="181" cy="120" r="2.5" fill="#6594B1" opacity="0.5"/>
  <line x1="75" y1="120" x2="98" y2="140" stroke="#6594B1" stroke-width="1" opacity="0.4"/>
  <line x1="181" y1="120" x2="158" y2="140" stroke="#6594B1" stroke-width="1" opacity="0.4"/>
</svg>